<?xml version="1.0" encoding="utf-8"?>
<!-- Generator: Adobe Illustrator 16.0.0, SVG Export Plug-In . SVG Version: 6.00 Build 0)  -->
<!DOCTYPE svg PUBLIC "-//W3C//DTD SVG 1.1//EN" "http://www.w3.org/Graphics/SVG/1.1/DTD/svg11.dtd">
<svg version="1.1" id="Calque_1" xmlns="http://www.w3.org/2000/svg" xmlns:xlink="http://www.w3.org/1999/xlink" x="0px" y="0px"
	 width="2349.235px" height="969.099px" viewBox="0 0 2349.235 969.099" enable-background="new 0 0 2349.235 969.099"
	 xml:space="preserve">
<linearGradient id="SVGID_1_" gradientUnits="userSpaceOnUse" x1="766.209" y1="484.8506" x2="1587.3506" y2="484.8506">
	<stop  offset="0.0035" style="stop-color:#83A13B"/>
	<stop  offset="0.1433" style="stop-color:#94AD42"/>
	<stop  offset="0.3921" style="stop-color:#ABBE4B"/>
	<stop  offset="0.6641" style="stop-color:#B9C851"/>
	<stop  offset="1" style="stop-color:#BECC53"/>
</linearGradient>
<polygon fill="url(#SVGID_1_)" points="840.943,857.367 766.209,19.242 1587.351,19.242 1512.543,857.236 1176.28,950.46 "/>
<polygon opacity="0.8" fill="#E5E591" points="1177.198,89.346 1512.698,89.346 1449.698,804.346 1177.198,878.846 "/>
<g>
	<path fill="#2A2727" d="M22.216,753.286V169.762h95.335v583.524H22.216z"/>
	<path fill="#2A2727" d="M721.345,753.286H604.293L317.406,288.597h-3.103l1.774,25.715c3.996,49.217,5.765,94.439,5.765,135.685
		v303.29H235.38V169.762h115.727l285.999,462.47h2.214l-3.103-66.509c-1.329-38.578-2.219-68.283-2.219-90.01V169.762h87.347
		V753.286z"/>
	<path fill="#2A2727" d="M1632.205,753.286V169.762h95.334v583.524H1632.205z"/>
	<path fill="#2A2727" d="M2331.343,753.286h-117.062l-286.882-464.689h-3.104l1.769,25.715c4.002,49.217,5.771,94.439,5.771,135.685
		v303.29h-86.462V169.762H1961.1l285.995,462.47h2.212l-3.104-66.509c-1.322-38.578-2.212-68.283-2.212-90.01V169.762h87.352
		V753.286z"/>
</g>
<path fill="#753637" d="M1425.434,302.669"/>
<g>
	<polygon fill="#FFFFFF" points="1433.502,177.899 1426.439,257.384 1177.132,258.49 1177.132,177.947 	"/>
	<polygon fill="#EBEBEB" points="1177.132,258.49 1017.928,258.49 1055.709,669.062 1177.124,702.481 1177.814,794.227 
		972.688,737.273 923.812,187.887 922.925,177.9 1177.132,177.947 	"/>
	<polygon fill="#FFFFFF" points="1177.124,702.481 1177.814,794.227 1383.58,736.905 1407.559,469.847 1408.884,454.942 
		1177.469,454.942 1177.469,534.794 1322.553,534.794 1309.259,665.271 	"/>
	<polygon fill="#EBEBEB" points="1117.992,534.712 1177.469,534.794 1177.469,454.942 1110.353,454.942 	"/>
</g>
<path fill="none" stroke="#7B2A2A" stroke-miterlimit="10" d="M1101.866,659.771"/>
<path fill="none" stroke="#7B2A2A" stroke-miterlimit="10" d="M987.875,258.49"/>
<path fill="none" stroke="#7B2A2A" stroke-miterlimit="10" d="M1248.773,732.462"/>
<path fill="none" stroke="#7B2A2A" stroke-miterlimit="10" d="M1299.204,456.812"/>
<path fill="none" stroke="#7B2A2A" stroke-miterlimit="10" d="M1101.926,658.664"/>
<path fill="none" stroke="#7B2A2A" stroke-miterlimit="10" d="M980.544,257.384"/>
<path fill="none" stroke="#7B2A2A" stroke-miterlimit="10" d="M1340.438,804.5"/>
<path fill="none" stroke="#7B2A2A" stroke-miterlimit="10" d="M1404.014,89.037"/>
<path fill="none" stroke="#7B2A2A" stroke-miterlimit="10" d="M1157.664-56.007"/>
<path fill="none" stroke="#7B2A2A" stroke-miterlimit="10" d="M1475.628,32.649"/>
<path fill="none" stroke="#7B2A2A" stroke-miterlimit="10" d="M1433.828,168.436"/>
</svg>
